<?xml version="1.0" encoding="UTF-8" standalone="no"?>
<svg width="14px" height="11px" viewBox="0 0 14 11" version="1.1" xmlns="http://www.w3.org/2000/svg" xmlns:xlink="http://www.w3.org/1999/xlink" xmlns:sketch="http://www.bohemiancoding.com/sketch/ns">
    <!-- Generator: Sketch 3.3.2 (12043) - http://www.bohemiancoding.com/sketch -->
    <title>team hover</title>
    <desc>Created with Sketch.</desc>
    <defs></defs>
    <g id="Page-1" stroke="none" stroke-width="1" fill="none" fill-rule="evenodd" sketch:type="MSPage">
        <g id="Menu" sketch:type="MSArtboardGroup" transform="translate(-1167.000000, -981.000000)" fill="#6699FF">
            <path d="M1171,983 L1168.00685,983 C1167.44995,983 1167,983.446616 1167,983.997545 L1167,991.002455 C1167,991.553689 1167.45078,992 1168.00685,992 L1179.99315,992 C1180.55005,992 1181,991.553384 1181,991.002455 L1181,983.997545 C1181,983.446311 1180.54922,983 1179.99315,983 L1177,983 L1177,981.999807 C1177,981.443717 1176.55641,981 1176.00922,981 L1171.99078,981 C1171.45098,981 1171,981.447629 1171,981.999807 L1171,983 Z M1172,982 L1176,982 L1176,983 L1172,983 L1172,982 Z" id="team-hover" sketch:type="MSShapeGroup"></path>
        </g>
    </g>
</svg>