<svg width="48" height="48" fill="none" xmlns="http://www.w3.org/2000/svg"><path d="M0 16.64c0-5.8245 0-8.73682 1.13353-10.9615.99709-1.95689 2.58808-3.54788 4.54497-4.54497C7.90318 0 10.8155 0 16.64 0h14.72c5.8245 0 8.7368 0 10.9615 1.13353 1.9569.99709 3.5479 2.58808 4.545 4.54497C48 7.90318 48 10.8155 48 16.64v14.72c0 5.8245 0 8.7368-1.1335 10.9615-.9971 1.9569-2.5881 3.5479-4.545 4.545C40.0968 48 37.1845 48 31.36 48H16.64c-5.8245 0-8.73682 0-10.9615-1.1335-1.95689-.9971-3.54788-2.5881-4.54497-4.545C0 40.0968 0 37.1845 0 31.36V16.64z" fill="#FFD02F"/><path fill-rule="evenodd" clip-rule="evenodd" d="M32.7083 6.39941h-5.124l4.5487 7.05139-9.6168-7.05139h-5.124l4.5486 9.23899-9.6167-9.23899H7.2002l4.474 11.92579-4.474 23.2742h5.1239l9.6167-24.9552-4.5486 24.9552h5.124l9.6168-27.1428-4.5487 27.1428h5.124l9.6913-29.8148-9.6913-5.38519z" fill="#050038"/></svg>