<svg xmlns="http://www.w3.org/2000/svg" xmlns:xlink="http://www.w3.org/1999/xlink" width="32" height="32" viewBox="0 0 32 32">
    <defs>
        <path id="a" d="M2.133 0h27.734C31.045 0 32 .955 32 2.133v27.734A2.133 2.133 0 0 1 29.867 32H2.133A2.133 2.133 0 0 1 0 29.867V2.133C0 .955.955 0 2.133 0z"/>
    </defs>
    <g fill="none" fill-rule="evenodd">
        <mask id="b" fill="#fff">
            <use xlink:href="#a"/>
        </mask>
        <use fill="#FFD02F" fill-rule="nonzero" xlink:href="#a"/>
        <g mask="url(#b)">
            <path fill="#FFD02F" fill-rule="nonzero" d="M0 0h32v32H0z"/>
            <path fill="#050038" d="M21.805 4.267H18.39l3.033 4.7-6.411-4.7h-3.416l3.032 6.159-6.411-6.16H4.8l2.983 7.951L4.8 27.733h3.416l6.411-16.636-3.032 16.636h3.416l6.41-18.095-3.032 18.095h3.416l6.461-19.876z"/>
        </g>
    </g>
</svg>
